<svg xmlns="http://www.w3.org/2000/svg" xmlns:xlink="http://www.w3.org/1999/xlink" width="2000" zoomAndPan="magnify" viewBox="0 0 1500 1499.999933" height="2000" preserveAspectRatio="xMidYMid meet" version="1.0"><defs><clipPath id="cf9dc5d8a8"><path d="M 66 871 L 448 871 L 448 1297 L 66 1297 Z M 66 871 " clip-rule="nonzero"/></clipPath><clipPath id="149bc1f35e"><path d="M -94.410156 1143.457031 L 272.121094 729.28125 L 607.277344 1025.882812 L 240.746094 1440.058594 Z M -94.410156 1143.457031 " clip-rule="nonzero"/></clipPath><clipPath id="2682b718ea"><path d="M 110.402344 925.242188 L 420.574219 872.246094 C 427.417969 871.078125 434.417969 873.074219 439.617188 877.671875 C 444.816406 882.273438 447.648438 888.980469 447.320312 895.914062 L 432.4375 1210.230469 C 431.648438 1226.855469 419.402344 1240.695312 402.996094 1243.5 L 92.820312 1296.496094 C 85.980469 1297.664062 78.976562 1295.667969 73.777344 1291.066406 C 68.582031 1286.46875 65.75 1279.761719 66.078125 1272.828125 L 80.960938 958.511719 C 81.746094 941.886719 93.996094 928.046875 110.402344 925.242188 Z M 110.402344 925.242188 " clip-rule="nonzero"/></clipPath><clipPath id="1dd7828a04"><path d="M 0 0 L 381.839844 0 L 381.839844 426 L 0 426 Z M 0 0 " clip-rule="nonzero"/></clipPath><clipPath id="f90f7581be"><path d="M -160.410156 272.457031 L 206.121094 -141.71875 L 541.277344 154.882812 L 174.746094 569.058594 Z M -160.410156 272.457031 " clip-rule="nonzero"/></clipPath><clipPath id="e91f53870d"><path d="M 44.402344 54.242188 L 354.574219 1.246094 C 361.417969 0.078125 368.417969 2.074219 373.617188 6.671875 C 378.816406 11.273438 381.648438 17.980469 381.320312 24.914062 L 366.4375 339.230469 C 365.648438 355.855469 353.402344 369.695312 336.996094 372.5 L 26.820312 425.496094 C 19.980469 426.664062 12.976562 424.667969 7.777344 420.066406 C 2.582031 415.46875 -0.25 408.761719 0.078125 401.828125 L 14.960938 87.511719 C 15.746094 70.886719 27.996094 57.046875 44.402344 54.242188 Z M 44.402344 54.242188 " clip-rule="nonzero"/></clipPath><clipPath id="04b455d215"><rect x="0" width="382" y="0" height="426"/></clipPath><clipPath id="0704dae400"><path d="M 89 251 L 1457 251 L 1457 923 L 89 923 Z M 89 251 " clip-rule="nonzero"/></clipPath><clipPath id="c24b83f2bb"><path d="M -6.148438 718.390625 L 1360.789062 56.25 L 1554.136719 455.402344 L 187.199219 1117.542969 Z M -6.148438 718.390625 " clip-rule="nonzero"/></clipPath><clipPath id="fb5de1cc1b"><path d="M 703.367188 379.582031 L 1447.363281 251.933594 C 1450.976562 251.3125 1454.566406 253.15625 1456.164062 256.457031 C 1457.761719 259.757812 1456.984375 263.714844 1454.257812 266.167969 L 892.890625 770.835938 C 879.042969 783.28125 861.957031 791.558594 843.605469 794.707031 L 99.609375 922.355469 C 95.996094 922.976562 92.40625 921.132812 90.808594 917.832031 C 89.210938 914.53125 89.988281 910.574219 92.714844 908.121094 L 654.082031 403.453125 C 667.929688 391.007812 685.015625 382.730469 703.367188 379.582031 Z M 703.367188 379.582031 " clip-rule="nonzero"/></clipPath><clipPath id="7fdf2571b8"><path d="M 0.0390625 0.28125 L 1368 0.28125 L 1368 672 L 0.0390625 672 Z M 0.0390625 0.28125 " clip-rule="nonzero"/></clipPath><clipPath id="d3615f2c5d"><path d="M -95.148438 467.390625 L 1271.789062 -194.75 L 1465.136719 204.402344 L 98.199219 866.542969 Z M -95.148438 467.390625 " clip-rule="nonzero"/></clipPath><clipPath id="68c7d7c7c9"><path d="M 614.367188 128.582031 L 1358.363281 0.933594 C 1361.976562 0.3125 1365.566406 2.15625 1367.164062 5.457031 C 1368.761719 8.757812 1367.984375 12.714844 1365.257812 15.167969 L 803.890625 519.835938 C 790.042969 532.28125 772.957031 540.558594 754.605469 543.707031 L 10.609375 671.355469 C 6.996094 671.976562 3.40625 670.132812 1.808594 666.832031 C 0.210938 663.53125 0.988281 659.574219 3.714844 657.121094 L 565.082031 152.453125 C 578.929688 140.007812 596.015625 131.730469 614.367188 128.582031 Z M 614.367188 128.582031 " clip-rule="nonzero"/></clipPath><clipPath id="a40d5e3eb2"><rect x="0" width="1368" y="0" height="672"/></clipPath></defs><g clip-path="url(#cf9dc5d8a8)"><g clip-path="url(#149bc1f35e)"><g clip-path="url(#2682b718ea)"><g transform="matrix(1, 0, 0, 1, 66, 871)"><g clip-path="url(#04b455d215)"><g clip-path="url(#1dd7828a04)"><g clip-path="url(#f90f7581be)"><g clip-path="url(#e91f53870d)"><path fill="#000000" d="M -175.660156 275.964844 L 207.75 -157.285156 L 556.527344 151.375 L 173.117188 584.625 Z M -175.660156 275.964844 " fill-opacity="1" fill-rule="nonzero"/></g></g></g></g></g></g></g></g><g clip-path="url(#0704dae400)"><g clip-path="url(#c24b83f2bb)"><g clip-path="url(#fb5de1cc1b)"><g transform="matrix(1, 0, 0, 1, 89, 251)"><g clip-path="url(#a40d5e3eb2)"><g clip-path="url(#7fdf2571b8)"><g clip-path="url(#d3615f2c5d)"><g clip-path="url(#68c7d7c7c9)"><path fill="#000000" d="M -115.691406 473.429688 L 1287.679688 -206.355469 L 1484.097656 199.132812 L 80.726562 878.917969 Z M -115.691406 473.429688 " fill-opacity="1" fill-rule="nonzero"/></g></g></g></g></g></g></g></g></svg>